<svg xmlns="http://www.w3.org/2000/svg" viewBox="0 0 64 64" role="img" aria-label="Scholesa icon">
  <defs>
    <linearGradient id="g1" x1="0%" x2="100%" y1="0%" y2="100%">
      <stop stop-color="#4f46e5" offset="0%"/>
      <stop stop-color="#0ea5e9" offset="50%"/>
      <stop stop-color="#22d3ee" offset="100%"/>
    </linearGradient>
  </defs>
  <rect width="64" height="64" rx="14" fill="url(#g1)"/>
  <path fill="#0f172a" d="M18 44c2.5 2.2 6.4 3.8 11.1 3.8 6.6 0 11-3.2 11-8.4 0-4.2-2.7-6.5-8.3-7.8l-2.9-.6c-2.8-.6-4-1.5-4-3 0-1.8 1.8-3 4.8-3 2.5 0 4.9.8 7 2.4l4-5.3C37.6 19.7 34 18 29.7 18c-6.1 0-10.4 3.4-10.4 8.5 0 4.3 2.7 6.8 8.5 8.1l2.7.6c2.8.6 4 1.5 4 3.1 0 1.8-1.8 3-4.8 3-3.1 0-5.8-1-8.3-3.1z"/>
</svg>
